# xmcd
#
# Track frame offsets:
# 150
# 22028
# 33991
# 59889
# 79091
# 94676
# 120354
# 138189
# 160954
# 173140
# 194303
# 213862
#
# Disc length: 3089 seconds
#
#
# Revision: 0
# Processed by: cddbd v1.5.1PL0 Copyright (c) Steve Scherf et al.
# Submitted via: FreeRIP 2.53 
#
DISCID=9d0c0f0c
DTITLE=Anima - Amares
DYEAR=2004
DGENRE=Other
TTITLE0=Tontinha
TTITLE1=Banhão-Nhão
TTITLE2=En La Mar
TTITLE3=Barcarola
TTITLE4=Aleijadinho
TTITLE5=Ondas do Mar de Vigo
TTITLE6=Estampie "Ghaetta"
TTITLE7=Menina Donzela
TTITLE8=Improviso
TTITLE9=Forrobodó
TTITLE10=Carta pro Zé
TTITLE11=Viva o Sol e Viva a Lua
EXTD=
EXTT0=
EXTT1=
EXTT2=
EXTT3=
EXTT4=
EXTT5=
EXTT6=
EXTT7=
EXTT8=
EXTT9=
EXTT10=
EXTT11=
PLAYORDER=
